<svg xmlns="http://www.w3.org/2000/svg" width="32" height="33" viewBox="0 0 32 33" fill="none">
  <path d="M18.5344 19.0344C14.9329 22.6359 10.7978 24.5034 9.33056 23.0361C8.26344 21.969 9.06378 19.1678 11.198 16.3666" stroke="#B6E827" stroke-width="1.5" stroke-linecap="round" stroke-linejoin="round"/>
  <path d="M13.4656 13.8323C17.2005 10.0974 21.3356 8.36332 22.6694 9.69721C23.7366 10.7643 22.9362 13.5655 20.802 16.3667" stroke="#B6E827" stroke-width="1.5" stroke-linecap="round" stroke-linejoin="round"/>
  <path d="M18.5344 13.8322C22.2693 17.5671 24.0033 21.7022 22.6694 23.036C21.6023 24.1032 18.8012 23.3028 16 21.1686" stroke="#B6E827" stroke-width="1.5" stroke-linecap="round" stroke-linejoin="round"/>
  <path d="M13.4656 19.0344C9.73072 15.2995 7.86328 11.1644 9.33056 9.69717C10.3977 8.63006 13.1988 9.43039 16 11.5646" stroke="#B6E827" stroke-width="1.5" stroke-linecap="round" stroke-linejoin="round"/>
  <path fill-rule="evenodd" clip-rule="evenodd" d="M10.6644 4.495H21.3356C25.0704 4.495 28.005 7.42955 28.005 11.1644V21.8356C28.005 25.5704 25.0704 28.505 21.3356 28.505H10.6644C6.92955 28.505 3.995 25.5704 3.995 21.8356V11.1644C3.995 7.42955 6.92955 4.495 10.6644 4.495Z" stroke="#B6E827" stroke-width="1.5" stroke-linecap="round" stroke-linejoin="round"/>
  <path d="M16 16.6334C16.1334 16.6334 16.1334 16.5 16 16.6334V16.5V16.6334C15.8666 16.5 15.8666 16.6334 16 16.6334" stroke="#B6E827" stroke-width="1.5" stroke-linecap="round" stroke-linejoin="round"/>
</svg>