<svg xmlns="http://www.w3.org/2000/svg" width="1728" height="1118" viewBox="0 0 1728 1118" fill="none">
  <path fill-rule="evenodd" clip-rule="evenodd" d="M1728 0H0V1117.5H1728V0ZM66 64H287.627C290.804 64 293.908 64.9454 296.545 66.7159L359.955 109.284C362.592 111.055 365.696 112 368.873 112H1387H1568H1616.2C1620.55 112 1624.7 113.767 1627.72 116.894L1650 140L1673.11 162.281C1676.23 165.297 1678 169.454 1678 173.798V960.156C1678 963.93 1676.67 967.583 1674.23 970.468L1610.29 1046.31C1607.25 1049.92 1602.78 1052 1598.06 1052H265.534C261.949 1052 258.468 1050.8 255.649 1048.58L208.351 1011.42C205.532 1009.2 202.051 1008 198.466 1008H66C57.1634 1008 50 1000.84 50 992V80C50 71.1635 57.1634 64 66 64Z" fill="url(#paint0_linear_111_98)" fill-opacity="0.8"/>
  <defs>
    <linearGradient id="paint0_linear_111_98" x1="1720.53" y1="1120.28" x2="83.346" y2="-110.837" gradientUnits="userSpaceOnUse">
      <stop stop-color="#1B1F25"/>
      <stop offset="1" stop-color="#313E46"/>
    </linearGradient>
  </defs>
</svg>
