<svg xmlns="http://www.w3.org/2000/svg" width="32" height="32" viewBox="0 0 32 32" fill="none">
  <path fill-rule="evenodd" clip-rule="evenodd" d="M24.897 8.93039L21.4076 5.44093C20.482 4.5152 19.2266 3.99512 17.9175 3.99512C16.6084 3.99512 15.3529 4.5152 14.4274 5.44093L12.8627 7.00558C12.6861 7.18185 12.6332 7.44721 12.7287 7.67771C12.8243 7.90821 13.0494 8.05837 13.2989 8.05802H14.278C14.9324 8.05827 15.5599 8.31831 16.0227 8.78099L17.0444 9.80275V11.5488L19.6629 14.1659L21.0101 13.7657L22.28 15.0343V16.779L23.0296 17.5286C23.5796 18.0784 24.4711 18.0784 25.0211 17.5286L28.2638 14.2846C28.5284 14.0208 28.6772 13.6625 28.6772 13.2889C28.6772 12.9152 28.5284 12.5569 28.2638 12.2931L27.5155 11.5448H25.7694L24.5009 10.2749L24.897 8.93039Z" stroke="#90A9BA" stroke-width="1.5" stroke-linecap="round" stroke-linejoin="round"/>
  <path fill-rule="evenodd" clip-rule="evenodd" d="M4.25111 27.0778V27.0778C4.87744 27.7039 5.73733 28.0391 6.62214 28.0021C7.50696 27.9651 8.33585 27.5593 8.90772 26.8831L19.6629 14.1658L17.0444 11.5487L4.42052 22.4412C3.75424 23.0164 3.35743 23.843 3.3253 24.7226C3.29316 25.6022 3.62859 26.4556 4.25111 27.0778Z" stroke="#90A9BA" stroke-width="1.5" stroke-linecap="round" stroke-linejoin="round"/>
</svg>