<svg xmlns="http://www.w3.org/2000/svg" width="32" height="32" viewBox="0 0 32 32" fill="none">
  <path d="M20.0017 28.005H23.6219C25.0953 28.005 26.2897 26.8106 26.2897 25.3372V5.32888C26.2897 4.5922 25.6925 3.995 24.9558 3.995H22.4787C21.7421 3.995 21.1449 4.5922 21.1449 5.32888V8.40483" stroke="#90A9BA" stroke-width="1.5" stroke-linecap="round" stroke-linejoin="round"/>
  <path fill-rule="evenodd" clip-rule="evenodd" d="M11.7143 17.4032C8.8894 17.4486 6.62317 19.7515 6.62317 22.5767C6.62317 25.4019 8.8894 27.7048 11.7143 27.7502C15.9293 27.7502 16.9631 22.5747 19.3788 21.1994C17.5787 18.7804 14.7294 17.3692 11.7143 17.4032Z" stroke="#90A9BA" stroke-width="1.5" stroke-linecap="round" stroke-linejoin="round"/>
  <path d="M12.3385 22.0132C9.44551 22.4974 6.89598 24.1916 5.32892 26.6711" stroke="#90A9BA" stroke-width="1.5" stroke-linecap="round" stroke-linejoin="round"/>
  <path d="M3.995 14.2846L14.2659 5.4809C15.2643 4.62697 16.7357 4.62697 17.7341 5.4809L28.005 14.2846" stroke="#90A9BA" stroke-width="1.5" stroke-linecap="round" stroke-linejoin="round"/>
</svg>