<svg xmlns="http://www.w3.org/2000/svg" width="32" height="32" viewBox="0 0 32 32" fill="none">
  <path d="M6.7027 13.3989C6.57264 11.6062 7.14148 9.83278 8.29003 8.4502C8.55473 8.13978 8.94994 7.97182 9.35714 7.99668C13.9772 8.28782 17.7809 11.7372 18.521 16.3068" stroke="white" stroke-width="1.5" stroke-linecap="round" stroke-linejoin="round"/>
  <path d="M18.6677 25.0057V28.005C18.6677 28.7416 18.0705 29.3388 17.3338 29.3388H14.666C13.9294 29.3388 13.3322 28.7416 13.3322 28.005V25.0057" stroke="white" stroke-width="1.5" stroke-linecap="round" stroke-linejoin="round"/>
  <path d="M12.8102 24.8509C14.3997 18.6882 19.5983 14.1258 25.9152 13.3498C26.3153 13.3198 26.7075 13.4725 26.9818 13.7653C27.2562 14.058 27.3832 14.4593 27.3273 14.8566C26.7351 20.7066 21.879 25.2 16.0007 25.3372C10.1177 25.1997 5.25943 20.6997 4.67249 14.8445C4.61736 14.4508 4.74178 14.0532 5.01147 13.7611C5.28116 13.469 5.66767 13.3134 6.0645 13.3371C9.9931 13.7035 13.6777 15.4045 16.5048 18.1568" stroke="white" stroke-width="1.5" stroke-linecap="round" stroke-linejoin="round"/>
  <path d="M16 11.158C17.7299 9.29544 20.1063 8.16451 22.6428 7.99668C23.05 7.97182 23.4452 8.13978 23.7099 8.4502C24.8613 9.84629 25.4256 11.6349 25.2839 13.4389" stroke="white" stroke-width="1.5" stroke-linecap="round" stroke-linejoin="round"/>
  <path d="M11.0112 8.23672C11.7959 6.63372 13.0405 5.30091 14.5861 4.40846C15.4493 3.86157 16.5506 3.86157 17.4139 4.40846C18.9639 5.30547 20.2128 6.6425 21.0021 8.25006" stroke="white" stroke-width="1.5" stroke-linecap="round" stroke-linejoin="round"/>
</svg>