<svg xmlns="http://www.w3.org/2000/svg" width="32" height="32" viewBox="0 0 32 32" fill="none">
  <path fill-rule="evenodd" clip-rule="evenodd" d="M4.66197 25.3371H5.59569C7.16242 25.3378 8.69393 25.8019 9.99752 26.671V26.671C11.3011 27.5401 12.8326 28.0042 14.3994 28.0049H17.6007C19.1674 28.0042 20.6989 27.5401 22.0025 26.671V26.671C23.3061 25.8019 24.8376 25.3378 26.4044 25.3371H27.3381C28.4431 25.3371 29.3389 24.4413 29.3389 23.3363V23.3363C29.3389 22.2313 28.4431 21.3354 27.3381 21.3354H4.66197C3.55694 21.3354 2.66113 22.2313 2.66113 23.3363V23.3363C2.66113 24.4413 3.55694 25.3371 4.66197 25.3371Z" stroke="#90A9BA" stroke-width="1.5" stroke-linecap="round" stroke-linejoin="round"/>
  <path d="M9.33057 7.72986V10.6644C9.33057 11.7694 10.2264 12.6652 11.3314 12.6652V12.6652C12.4364 12.6652 13.3322 11.7694 13.3322 10.6644V7.99664C13.3322 6.52326 14.5266 5.32886 16 5.32886V5.32886C17.4734 5.32886 18.6678 6.52326 18.6678 7.99664V10.6644C18.6678 11.7694 19.5636 12.6652 20.6686 12.6652V12.6652C21.7737 12.6652 22.6695 11.7694 22.6695 10.6644V7.72986" stroke="#90A9BA" stroke-width="1.5" stroke-linecap="round" stroke-linejoin="round"/>
  <path d="M18.3103 6.66272H18.6678C23.0879 6.66272 26.6711 10.2459 26.6711 14.6661V21.3355" stroke="#90A9BA" stroke-width="1.5" stroke-linecap="round" stroke-linejoin="round"/>
  <path d="M13.6897 6.66272H13.3323C8.91213 6.66272 5.32892 10.2459 5.32892 14.6661V21.3355" stroke="#90A9BA" stroke-width="1.5" stroke-linecap="round" stroke-linejoin="round"/>
</svg>