<?xml version="1.0" encoding="UTF-8" standalone="no"?>
<!-- Created with Inkscape (http://www.inkscape.org/) -->

<svg
   width="31.999998"
   height="31.999998"
   viewBox="0 0 8.466666 8.4666661"
   version="1.1"
   id="svg1"
   xmlns="http://www.w3.org/2000/svg"
   xmlns:svg="http://www.w3.org/2000/svg">
  <defs
     id="defs1" />
  <g
     id="layer5">
    <path
       d="m 5.4039094,7.471616 h 0.9578445 c 0.389837,0 0.705855,-0.3160184 0.705855,-0.7058555 V 1.4718926 c 0,-0.1949132 -0.158009,-0.3529224 -0.352927,-0.3529224 h -0.6554 c -0.194892,0 -0.352901,0.1580092 -0.352901,0.3529224 v 0.8138451"
       stroke="#90a9ba"
       stroke-width="0.396875"
       stroke-linecap="round"
       stroke-linejoin="round"
       id="path1"
       style="fill:#000000;fill-opacity:0" />
    <path
       d="M 1.1688034,3.8414268 3.8863123,1.5121146 c 0.26416,-0.2259357 0.6534679,-0.2259357 0.9176279,0 l 2.7175087,2.3293122"
       stroke="#90a9ba"
       stroke-width="0.396875"
       stroke-linecap="round"
       stroke-linejoin="round"
       id="path2"
       style="fill:#000000;fill-opacity:0" />
  </g>
  <g
     id="layer6">
    <path
       d="M 3.6065566,4.8164087 C 3.395816,4.7461592 3.1056819,4.6508959 2.9742977,4.6056522 2.6166075,4.4824701 2.0259861,4.3246965 2.0610434,4.3246488 L 3.2553011,5.0974068 3.1219829,5.2457137 3.4898754,5.6134184 3.6768035,5.4486597 c 0,0 0.06133,-0.013409 0.2107406,0.2107512 0.1404938,0.2107538 0.7024952,1.1942709 0.7024952,1.1942709 0,0 0.027279,-0.4215077 -0.2107406,-0.9132676 C 4.2655543,5.705406 4.0264239,5.2513334 3.9578175,5.1676563 c 0,0 0.070247,-0.070249 0.2107406,-0.2107512 C 4.0280644,4.8164087 3.8172973,4.6759017 3.8172973,4.6759017 3.6768035,4.7461539 3.6065566,4.8164087 3.6065566,4.8164087 Z"
       stroke="#90a9ba"
       stroke-width="0.396875"
       stroke-linecap="round"
       stroke-linejoin="round"
       id="path1-9"
       style="fill:#000000;fill-opacity:0" />
    <path
       fill-rule="evenodd"
       clip-rule="evenodd"
       d="m 1.2882669,7.3454099 c 0.088,0.087974 0.2269358,0.1457061 0.3512529,0.1405202 0,0 1.0436622,-1.0290174 1.1240109,-1.1240293 L 3.4898489,5.6133892 3.1219617,5.2456846 2.4122751,5.9404037 c -0.093612,0.080817 -1.2178718,1.156245 -1.2178718,1.156245 -0.00452,0.1235869 0.0064,0.1613429 0.093864,0.2487612 z"
       stroke="#90a9ba"
       stroke-width="0.396875"
       stroke-linecap="round"
       stroke-linejoin="round"
       id="path2-1"
       style="fill:#000000;fill-opacity:0" />
  </g>
</svg>
