<svg xmlns="http://www.w3.org/2000/svg" width="32" height="32" viewBox="0 0 32 32" fill="none">
  <path d="M18.5343 18.5344C14.9328 22.1359 10.7977 24.0033 9.33047 22.536C8.26336 21.4689 9.06369 18.6677 11.1979 15.8666" stroke="#B6E827" stroke-width="1.5" stroke-linecap="round" stroke-linejoin="round"/>
  <path d="M13.4656 13.3321C17.2005 9.59726 21.3355 7.8632 22.6694 9.19709C23.7365 10.2642 22.9362 13.0654 20.802 15.8665" stroke="#B6E827" stroke-width="1.5" stroke-linecap="round" stroke-linejoin="round"/>
  <path d="M18.5344 13.3322C22.2693 17.067 24.0033 21.2021 22.6694 22.536C21.6023 23.6031 18.8012 22.8028 16 20.6685" stroke="#B6E827" stroke-width="1.5" stroke-linecap="round" stroke-linejoin="round"/>
  <path d="M13.4656 18.5344C9.73072 14.7995 7.86327 10.6644 9.33055 9.19717C10.3977 8.13006 13.1988 8.93039 16 11.0646" stroke="#B6E827" stroke-width="1.5" stroke-linecap="round" stroke-linejoin="round"/>
  <path fill-rule="evenodd" clip-rule="evenodd" d="M10.6644 3.995H21.3356C25.0704 3.995 28.005 6.92955 28.005 10.6644V21.3356C28.005 25.0704 25.0704 28.005 21.3356 28.005H10.6644C6.92955 28.005 3.995 25.0704 3.995 21.3356V10.6644C3.995 6.92955 6.92955 3.995 10.6644 3.995Z" stroke="#B6E827" stroke-width="1.5" stroke-linecap="round" stroke-linejoin="round"/>
  <path d="M16 16.1333C16.1333 16.1333 16.1333 15.9999 16 16.1333V15.9999V16.1333C15.8666 15.9999 15.8666 16.1333 16 16.1333" stroke="#B6E827" stroke-width="1.5" stroke-linecap="round" stroke-linejoin="round"/>
</svg>