<svg xmlns="http://www.w3.org/2000/svg" width="32" height="32" viewBox="0 0 32 32" fill="none">
  <path fill-rule="evenodd" clip-rule="evenodd" d="M27.9014 21.332V10.668C27.9014 9.71468 27.3934 8.83468 26.568 8.35868L17.3334 3.02668C16.508 2.55068 15.492 2.55068 14.6667 3.02668L5.43203 8.35868C4.60669 8.83468 4.09869 9.71601 4.09869 10.668V21.3307C4.09869 22.284 4.60669 23.164 5.43203 23.64L14.6667 28.9733C15.492 29.4493 16.508 29.4493 17.3334 28.9733L26.568 23.6413C27.3934 23.1653 27.9014 22.284 27.9014 21.332Z" stroke="#90A9BA" stroke-width="1.5" stroke-linecap="round" stroke-linejoin="round"/>
  <path d="M8.22668 16.84L12.2267 19.16" stroke="#90A9BA" stroke-width="1.5" stroke-linecap="round" stroke-linejoin="round"/>
  <path d="M4.45605 9.33472L16.0001 16L27.5441 9.33472" stroke="#90A9BA" stroke-width="1.5" stroke-linecap="round" stroke-linejoin="round"/>
  <path d="M16 29.3333V16" stroke="#90A9BA" stroke-width="1.5" stroke-linecap="round" stroke-linejoin="round"/>
  <path d="M21.7733 12.6667L10.0533 5.69336" stroke="#90A9BA" stroke-width="1.5" stroke-linecap="round" stroke-linejoin="round"/>
</svg>