<?xml version="1.0" encoding="UTF-8" standalone="no"?>
<!-- Created with Inkscape (http://www.inkscape.org/) -->

<svg
   width="31.999998"
   height="31.999998"
   viewBox="0 0 8.466666 8.4666661"
   version="1.1"
   id="svg1"
   xmlns="http://www.w3.org/2000/svg"
   xmlns:svg="http://www.w3.org/2000/svg">
  <defs
     id="defs1" />
  <g
     id="layer5">
    <path
       d="M 7.6958653,3.2861441 5.0389955,3.2902841 5.044307,4.036119 6.7058765,4.4126148 5.0501514,4.8567873 5.0566117,5.7639415 5.8962508,5.98615 5.0596539,6.1911344 5.0627023,6.6191798 5.3903794,6.983517 4.5827461,7.4685395 3.6776773,6.9989502 4.118251,6.6883587 4.1115511,6.2098655 3.2102136,5.9529947 4.1545105,5.8321729 4.1467178,4.7885653 2.4079264,4.4140722 4.1580059,4.1225342 4.1682022,3.3046399 1.475193,3.2913167"
       stroke="#90a9ba"
       stroke-width="0.396875"
       stroke-linecap="round"
       stroke-linejoin="round"
       id="path2-4-7-1-6"
       style="fill:#000000;fill-opacity:0" />
    <path
       d="M 1.4853612,3.1581024 C 1.6080175,2.5808663 1.8906406,2.049767 2.3009308,1.6256062 3.1135027,0.78341915 4.3232033,0.45603762 5.4496076,0.77344551 6.576012,1.0908534 7.4368035,2.0016965 7.6901009,3.1442427"
       stroke="#90a9ba"
       stroke-width="0.396875"
       stroke-linecap="round"
       stroke-linejoin="round"
       id="path1"
       style="fill:#000000;fill-opacity:0" />
  </g>
</svg>
