<svg xmlns="http://www.w3.org/2000/svg" width="32" height="32" viewBox="0 0 32 32" fill="none">
  <path d="M27.7234 12.698C28.7768 13.7514 28.7768 15.4592 27.7234 16.5126C26.67 17.566 24.9622 17.566 23.9088 16.5126C22.8554 15.4592 22.8554 13.7514 23.9088 12.698C24.9622 11.6446 26.67 11.6446 27.7234 12.698" stroke="#23BDFF" stroke-width="1.5" stroke-linecap="round" stroke-linejoin="round"/>
  <path d="M18.9369 7.88311C20.5588 9.50508 20.5588 12.1348 18.9369 13.7568C17.3149 15.3788 14.6851 15.3788 13.0632 13.7568C11.4412 12.1348 11.4412 9.50509 13.0632 7.88311C14.6851 6.26113 17.3149 6.26113 18.9369 7.88311" stroke="#23BDFF" stroke-width="1.5" stroke-linecap="round" stroke-linejoin="round"/>
  <path d="M8.09133 12.698C9.1447 13.7514 9.1447 15.4592 8.09133 16.5126C7.03795 17.566 5.3301 17.566 4.27673 16.5126C3.22335 15.4592 3.22335 13.7514 4.27673 12.698C5.3301 11.6446 7.03795 11.6446 8.09133 12.698" stroke="#23BDFF" stroke-width="1.5" stroke-linecap="round" stroke-linejoin="round"/>
  <path d="M30.6667 25.3332V23.8719C30.6667 22.0306 29.1747 20.5386 27.3334 20.5386H26.2654" stroke="#23BDFF" stroke-width="1.5" stroke-linecap="round" stroke-linejoin="round"/>
  <path d="M1.33337 25.3332V23.8719C1.33337 22.0306 2.82537 20.5386 4.66671 20.5386H5.73471" stroke="#23BDFF" stroke-width="1.5" stroke-linecap="round" stroke-linejoin="round"/>
  <path d="M23.1187 25.3333V23.1986C23.1187 20.6213 21.0293 18.532 18.452 18.532H13.5467C10.9693 18.532 8.88 20.6213 8.88 23.1986V25.3333" stroke="#23BDFF" stroke-width="1.5" stroke-linecap="round" stroke-linejoin="round"/>
</svg>