<svg xmlns="http://www.w3.org/2000/svg" width="32" height="33" viewBox="0 0 32 33" fill="none">
  <path d="M27.7233 13.1981C28.7767 14.2514 28.7767 15.9593 27.7233 17.0127C26.67 18.066 24.9621 18.066 23.9087 17.0127C22.8554 15.9593 22.8554 14.2514 23.9087 13.1981C24.9621 12.1447 26.67 12.1447 27.7233 13.1981" stroke="#23BDFF" stroke-width="1.5" stroke-linecap="round" stroke-linejoin="round"/>
  <path d="M18.9368 8.38317C20.5588 10.0051 20.5588 12.6349 18.9368 14.2569C17.3148 15.8788 14.6851 15.8788 13.0631 14.2569C11.4411 12.6349 11.4411 10.0052 13.0631 8.38317C14.6851 6.76119 17.3148 6.76119 18.9368 8.38317" stroke="#23BDFF" stroke-width="1.5" stroke-linecap="round" stroke-linejoin="round"/>
  <path d="M8.09133 13.1981C9.1447 14.2514 9.1447 15.9593 8.09133 17.0127C7.03795 18.066 5.3301 18.066 4.27673 17.0127C3.22335 15.9593 3.22335 14.2514 4.27673 13.1981C5.3301 12.1447 7.03795 12.1447 8.09133 13.1981" stroke="#23BDFF" stroke-width="1.5" stroke-linecap="round" stroke-linejoin="round"/>
  <path d="M30.6667 25.8334V24.372C30.6667 22.5307 29.1747 21.0387 27.3334 21.0387H26.2654" stroke="#23BDFF" stroke-width="1.5" stroke-linecap="round" stroke-linejoin="round"/>
  <path d="M1.33334 25.8334V24.372C1.33334 22.5307 2.82534 21.0387 4.66668 21.0387H5.73468" stroke="#23BDFF" stroke-width="1.5" stroke-linecap="round" stroke-linejoin="round"/>
  <path d="M23.1187 25.8334V23.6987C23.1187 21.1214 21.0293 19.032 18.452 19.032H13.5467C10.9693 19.032 8.88 21.1214 8.88 23.6987V25.8334" stroke="#23BDFF" stroke-width="1.5" stroke-linecap="round" stroke-linejoin="round"/>
</svg>