<svg xmlns="http://www.w3.org/2000/svg" width="32" height="32" viewBox="0 0 32 32" fill="none">
  <path d="M24.4853 7.51472C29.1716 12.201 29.1716 19.799 24.4853 24.4853C19.799 29.1715 12.2011 29.1715 7.5148 24.4853C2.8285 19.799 2.8285 12.201 7.5148 7.51472C12.2011 2.82843 19.7991 2.82843 24.4853 7.51472" stroke="#90A9BA" stroke-width="1.5" stroke-linecap="round" stroke-linejoin="round"/>
  <path d="M23.2173 25.3746C22.9813 24.78 22.6147 24.2466 22.1453 23.812C21.352 23.076 20.3147 22.6666 19.232 22.6666C17.4267 22.6666 14.5733 22.6666 12.768 22.6666C11.6853 22.6666 10.648 23.076 9.85333 23.812C9.38399 24.2466 9.01866 24.78 8.78133 25.3746" stroke="#90A9BA" stroke-width="1.5" stroke-linecap="round" stroke-linejoin="round"/>
  <path d="M17.8856 14.1144C18.927 15.1558 18.927 16.8443 17.8856 17.8857C16.8442 18.9271 15.1558 18.9271 14.1144 17.8857C13.073 16.8443 13.073 15.1558 14.1144 14.1144C15.1558 13.073 16.8442 13.073 17.8856 14.1144" stroke="#90A9BA" stroke-width="1.5" stroke-linecap="round" stroke-linejoin="round"/>
  <path d="M16 4V6.66667" stroke="#90A9BA" stroke-width="1.5" stroke-linecap="round" stroke-linejoin="round"/>
  <path d="M22 5.61328L20.84 7.61328" stroke="#90A9BA" stroke-width="1.5" stroke-linecap="round" stroke-linejoin="round"/>
  <path d="M10 5.61328L11.16 7.61328" stroke="#90A9BA" stroke-width="1.5" stroke-linecap="round" stroke-linejoin="round"/>
  <path d="M5.61333 10L7.61333 11.16" stroke="#90A9BA" stroke-width="1.5" stroke-linecap="round" stroke-linejoin="round"/>
  <path d="M28 16H26" stroke="#90A9BA" stroke-width="1.5" stroke-linecap="round" stroke-linejoin="round"/>
  <path d="M6 16H4" stroke="#90A9BA" stroke-width="1.5" stroke-linecap="round" stroke-linejoin="round"/>
  <path d="M18.3867 14.84L26.3867 10" stroke="#90A9BA" stroke-width="1.5" stroke-linecap="round" stroke-linejoin="round"/>
</svg>